<?xml version="1.0" encoding="utf-8" ?>
<svg xmlns="http://www.w3.org/2000/svg" xmlns:xlink="http://www.w3.org/1999/xlink" width="1023" height="1023">
	<path fill="#E8B34C" d="M511.255 100.117C520.021 101.974 531.048 107.401 539.521 110.769L602.891 136.271L822.927 224.853C835.317 229.796 936.837 269.52 939.398 271.766C939.581 271.927 939.735 272.12 939.881 272.316L635.539 394.164L549.662 428.231C537.456 433.044 522.29 437.339 511.058 443.69C506.231 441.342 500.761 439.742 495.735 437.792C488.232 434.88 480.84 431.653 473.412 428.555C430.346 410.59 386.698 393.873 343.341 376.616L157.874 302.176C132.358 292.024 106.848 281.449 81.1342 271.835C88.8666 267.735 97.3489 264.864 105.51 261.725L138.546 248.851L251.075 204.137L416.18 138.077L478.728 112.968C489.526 108.662 500.319 104.053 511.255 100.117Z"/>
	<path fill="#D08E19" d="M81.1342 271.835C106.848 281.449 132.358 292.024 157.874 302.176L343.341 376.616C386.698 393.873 430.346 410.59 473.412 428.555C480.84 431.653 488.232 434.88 495.735 437.792C500.761 439.742 506.231 441.342 511.058 443.69C522.29 437.339 537.456 433.044 549.662 428.231L635.539 394.164L939.881 272.316C939.343 283.542 939.549 294.864 939.528 306.103Q939.422 331.303 939.644 356.501C934.558 358.976 913.799 366.308 911.427 368.496L911.525 635.13L911.58 715.191C911.588 730.065 911.203 745.05 911.79 759.91C895.096 767.908 877.329 774.179 860.181 781.164L761.729 821.426L568.485 900.527C549.282 908.239 530.231 916.384 510.911 923.798C503.146 921.277 495.832 917.496 488.316 914.324L445.64 896.633L299.472 836.404L175.331 785.184L140.478 770.951C131.633 767.346 122.429 763.868 114.077 759.208L113.866 525.372L113.748 425.595C113.725 407.169 113.429 388.706 113.787 370.286C103.25 365.594 92.3946 361.835 81.5038 358.063L81.6743 301.243C81.6499 291.5 81.8832 281.549 81.1342 271.835Z"/>
	<path fill="#C36A09" d="M81.1342 271.835C106.848 281.449 132.358 292.024 157.874 302.176L343.341 376.616C386.698 393.873 430.346 410.59 473.412 428.555C480.84 431.653 488.232 434.88 495.735 437.792C500.761 439.742 506.231 441.342 511.058 443.69C511.633 459.251 511.142 474.756 511.312 490.312C511.454 503.287 512.6 516.086 511.321 529.045C496.32 524.218 481.78 517.147 467.185 511.181L377.176 474.355Q245.989 421.037 113.787 370.286C103.25 365.594 92.3946 361.835 81.5038 358.063L81.6743 301.243C81.6499 291.5 81.8832 281.549 81.1342 271.835Z"/>
	<path fill="#E8B34C" d="M510.996 529.392C523.756 525.112 536.181 519.288 548.612 514.127L605.731 490.808L830.672 400.345C847.101 393.819 863.625 387.464 879.968 380.728C889.149 376.944 898.202 372.795 907.49 369.269C908.827 368.762 910.043 368.022 911.427 368.496L911.525 635.13L911.58 715.191C911.588 730.065 911.203 745.05 911.79 759.91C895.096 767.908 877.329 774.179 860.181 781.164L761.729 821.426L568.485 900.527C549.282 908.239 530.231 916.384 510.911 923.798L510.996 529.392Z"/>
	<path fill="#8E5D21" d="M626.01 545.765C646.155 536.73 667.06 529.325 687.573 521.16C719.62 508.406 751.414 495.288 783.814 483.425C783.656 498.571 783.935 513.749 784.005 528.898Q705.426 561.531 626.035 592.136L626.01 545.765Z"/>
	<path fill="#F2E5C5" d="M784.005 528.898C805.588 520.947 826.813 512.15 848.506 504.465L848.382 565.814C848.357 576.729 848.017 587.73 848.364 598.632C826.404 607.766 804.117 616.235 781.996 624.978Q677.628 665.609 573.754 707.49L574.087 649.74C574.145 637.727 574.578 625.387 573.638 613.419C590.889 605.869 608.905 599.868 626.035 592.136Q705.426 561.531 784.005 528.898Z"/>
</svg>
